<svg width="31" height="32" viewBox="0 0 31 32" fill="none" xmlns="http://www.w3.org/2000/svg">
<g clip-path="url(#clip0_33_3929)">
<path d="M4.67749 23.9354C6.17749 25.7416 8.96749 25.7416 14.55 25.7416H15.45C21.0325 25.7416 23.8237 25.7416 25.3237 23.9354M4.67749 23.9354C3.17749 22.1279 3.69249 19.3854 4.72124 13.8979C5.45249 9.99789 5.81749 8.04664 7.20624 6.89414M25.3237 23.9354C26.8237 22.1279 26.3087 19.3854 25.28 13.8979C24.5487 9.99789 24.1825 8.04664 22.7937 6.89414M22.7937 6.89414C21.4062 5.74164 19.42 5.74164 15.4512 5.74164H14.5487C10.58 5.74164 8.59499 5.74164 7.20624 6.89414" stroke="#383838" stroke-width="1.5"/>
<path d="M11.4625 10.7416C11.7207 11.4736 12.1996 12.1073 12.8332 12.5557C13.4668 13.004 14.2238 13.2447 15 13.2447C15.7761 13.2447 16.5331 13.004 17.1667 12.5557C17.8003 12.1073 18.2792 11.4736 18.5375 10.7416" stroke="#383838" stroke-width="1.5" stroke-linecap="round"/>
</g>
<defs>
<clipPath id="clip0_33_3929">
<rect width="30.5167" height="30.5167" fill="white" transform="translate(0 0.741638)"/>
</clipPath>
</defs>
</svg>
