<svg width="26" height="26" viewBox="0 0 26 26" fill="none" xmlns="http://www.w3.org/2000/svg">
<path d="M22.8075 21.9235L18.2835 17.3995M18.2835 17.3995C19.0574 16.6257 19.6712 15.707 20.09 14.6959C20.5088 13.6848 20.7244 12.6012 20.7244 11.5068C20.7244 10.4124 20.5088 9.32876 20.09 8.31769C19.6712 7.30661 19.0574 6.38793 18.2835 5.61409C17.5097 4.84025 16.591 4.2264 15.5799 3.8076C14.5689 3.3888 13.4852 3.17325 12.3908 3.17325C11.2965 3.17325 10.2128 3.3888 9.20172 3.8076C8.19065 4.2264 7.27196 4.84025 6.49812 5.61409C4.93528 7.17693 4.05728 9.2966 4.05728 11.5068C4.05728 13.717 4.93528 15.8367 6.49812 17.3995C8.06096 18.9623 10.1806 19.8403 12.3908 19.8403C14.601 19.8403 16.7207 18.9623 18.2835 17.3995Z" stroke="#212F46" stroke-opacity="0.9" stroke-width="1.5" stroke-linecap="round" stroke-linejoin="round"/>
</svg>
