<svg width="45" height="45" viewBox="0 0 45 45" fill="none" xmlns="http://www.w3.org/2000/svg">
<path d="M13.125 25.375C16.709 25.375 19.625 28.291 19.625 31.875C19.625 35.459 16.709 38.375 13.125 38.375C9.54103 38.375 6.625 35.459 6.625 31.875C6.625 28.291 9.54103 25.375 13.125 25.375ZM26.25 25.375H37.5C37.7321 25.375 37.955 25.4668 38.1191 25.6309C38.2832 25.795 38.375 26.0179 38.375 26.25V37.5C38.375 37.7321 38.2832 37.955 38.1191 38.1191C37.955 38.2832 37.7321 38.375 37.5 38.375H26.25C26.0179 38.375 25.795 38.2832 25.6309 38.1191C25.4668 37.955 25.375 37.7321 25.375 37.5V26.25C25.375 26.0179 25.4668 25.795 25.6309 25.6309C25.795 25.4668 26.0179 25.375 26.25 25.375ZM7.5 6.625H18.75C18.9821 6.625 19.205 6.71677 19.3691 6.88086C19.5332 7.04495 19.625 7.26794 19.625 7.5V18.75C19.625 18.9821 19.5332 19.205 19.3691 19.3691C19.205 19.5332 18.9821 19.625 18.75 19.625H7.5C7.26794 19.625 7.04495 19.5332 6.88086 19.3691C6.71677 19.205 6.625 18.9821 6.625 18.75V7.5C6.625 7.26794 6.71677 7.04495 6.88086 6.88086C7.04495 6.71677 7.26794 6.625 7.5 6.625ZM31.875 6.625C35.459 6.625 38.375 9.54103 38.375 13.125C38.375 16.709 35.459 19.625 31.875 19.625C28.291 19.625 25.375 16.709 25.375 13.125C25.375 9.54103 28.291 6.625 31.875 6.625Z" fill="#91CEEB" stroke="#91CEEB" stroke-width="2"/>
</svg>
