<svg width="45" height="45" viewBox="0 0 45 45" fill="none" xmlns="http://www.w3.org/2000/svg">
<path d="M22.4998 5.25C23.1113 5.25 23.7056 5.45372 24.1883 5.8291L39.908 18.0557V18.0566C40.566 18.5688 40.2051 19.625 39.3689 19.625H36.4998V35.625C36.4998 36.3543 36.2099 37.0536 35.6941 37.5693C35.1784 38.085 34.4791 38.375 33.7498 38.375H27.2498V28.125C27.2498 26.8654 26.7497 25.6573 25.8592 24.7666C24.9684 23.8758 23.7596 23.375 22.4998 23.375C21.2401 23.3751 20.0322 23.8758 19.1414 24.7666C18.2507 25.6574 17.7498 26.8653 17.7498 28.125V38.375H11.2498C10.5205 38.3749 9.82114 38.085 9.30547 37.5693C8.78983 37.0536 8.4998 36.3543 8.4998 35.625V19.625H5.63066C4.79836 19.625 4.43123 18.572 5.0916 18.0547L20.8113 5.8291C21.294 5.45364 21.8883 5.25004 22.4998 5.25Z" fill="#91CEEB" stroke="#91CEEB" stroke-width="2"/>
</svg>
