<svg width="45" height="45" viewBox="0 0 45 45" fill="none" xmlns="http://www.w3.org/2000/svg">
<path d="M15 25.375H30C32.2212 25.375 34.3513 26.2575 35.9219 27.8281C37.4925 29.3987 38.375 31.5288 38.375 33.75C38.375 34.9766 37.8879 36.1532 37.0205 37.0205C36.1532 37.8879 34.9766 38.375 33.75 38.375H11.25C10.0234 38.375 8.84685 37.8879 7.97949 37.0205C7.11214 36.1532 6.625 34.9766 6.625 33.75C6.625 31.5288 7.50751 29.3987 9.07812 27.8281C10.6487 26.2575 12.7788 25.375 15 25.375ZM22.5 6.625C24.2239 6.625 25.8777 7.30933 27.0967 8.52832C28.3157 9.74731 29 11.4011 29 13.125C29 14.8489 28.3157 16.5027 27.0967 17.7217C25.8777 18.9407 24.2239 19.625 22.5 19.625C20.7761 19.625 19.1223 18.9407 17.9033 17.7217C16.6843 16.5027 16 14.8489 16 13.125C16 11.4011 16.6843 9.74731 17.9033 8.52832C19.1223 7.30933 20.7761 6.625 22.5 6.625Z" fill="#91CEEB" stroke="#91CEEB" stroke-width="2"/>
</svg>
