<svg width="35" height="35" viewBox="0 0 35 35" fill="none" xmlns="http://www.w3.org/2000/svg">
<path d="M8.125 20.375C11.709 20.375 14.625 23.291 14.625 26.875C14.625 30.459 11.709 33.375 8.125 33.375C4.54103 33.375 1.625 30.459 1.625 26.875C1.625 23.291 4.54103 20.375 8.125 20.375ZM21.25 20.375H32.5C32.7321 20.375 32.955 20.4668 33.1191 20.6309C33.2832 20.795 33.375 21.0179 33.375 21.25V32.5C33.375 32.7321 33.2832 32.955 33.1191 33.1191C32.955 33.2832 32.7321 33.375 32.5 33.375H21.25C21.0179 33.375 20.795 33.2832 20.6309 33.1191C20.4668 32.955 20.375 32.7321 20.375 32.5V21.25C20.375 21.0179 20.4668 20.795 20.6309 20.6309C20.795 20.4668 21.0179 20.375 21.25 20.375ZM2.5 1.625H13.75C13.9821 1.625 14.205 1.71677 14.3691 1.88086C14.5332 2.04495 14.625 2.26794 14.625 2.5V13.75C14.625 13.9821 14.5332 14.205 14.3691 14.3691C14.205 14.5332 13.9821 14.625 13.75 14.625H2.5C2.26794 14.625 2.04495 14.5332 1.88086 14.3691C1.71677 14.205 1.625 13.9821 1.625 13.75V2.5C1.625 2.26794 1.71677 2.04495 1.88086 1.88086C2.04495 1.71677 2.26794 1.625 2.5 1.625ZM26.875 1.625C30.459 1.625 33.375 4.54103 33.375 8.125C33.375 11.709 30.459 14.625 26.875 14.625C23.291 14.625 20.375 11.709 20.375 8.125C20.375 4.54103 23.291 1.625 26.875 1.625Z" fill="#6A84F9" stroke="#6A84F9" stroke-width="2"/>
</svg>
