<svg width="39" height="36" viewBox="0 0 39 36" fill="none" xmlns="http://www.w3.org/2000/svg">
<path d="M19.4998 1.25C20.1113 1.25 20.7056 1.45372 21.1883 1.8291L36.908 14.0557V14.0566C37.566 14.5688 37.2051 15.625 36.3689 15.625H33.4998V31.625C33.4998 32.3543 33.2099 33.0536 32.6941 33.5693C32.1784 34.085 31.4791 34.375 30.7498 34.375H24.2498V24.125C24.2498 22.8654 23.7497 21.6573 22.8592 20.7666C21.9684 19.8758 20.7596 19.375 19.4998 19.375C18.2401 19.3751 17.0322 19.8758 16.1414 20.7666C15.2507 21.6574 14.7498 22.8653 14.7498 24.125V34.375H8.2498C7.52052 34.3749 6.82114 34.085 6.30547 33.5693C5.78983 33.0536 5.4998 32.3543 5.4998 31.625V15.625H2.63066C1.79836 15.625 1.43123 14.572 2.0916 14.0547L17.8113 1.8291C18.294 1.45364 18.8883 1.25004 19.4998 1.25Z" fill="#6A84F9" stroke="#6A84F9" stroke-width="2"/>
</svg>
