<svg width="35" height="35" viewBox="0 0 35 35" fill="none" xmlns="http://www.w3.org/2000/svg">
<path d="M10 20.375H25C27.2212 20.375 29.3513 21.2575 30.9219 22.8281C32.4925 24.3987 33.375 26.5288 33.375 28.75C33.375 29.9766 32.8879 31.1532 32.0205 32.0205C31.1532 32.8879 29.9766 33.375 28.75 33.375H6.25C5.02337 33.375 3.84685 32.8879 2.97949 32.0205C2.11214 31.1532 1.625 29.9766 1.625 28.75C1.625 26.5288 2.50751 24.3987 4.07812 22.8281C5.64874 21.2575 7.77881 20.375 10 20.375ZM17.5 1.625C19.2239 1.625 20.8777 2.30933 22.0967 3.52832C23.3157 4.74731 24 6.40109 24 8.125C24 9.84891 23.3157 11.5027 22.0967 12.7217C20.8777 13.9407 19.2239 14.625 17.5 14.625C15.7761 14.625 14.1223 13.9407 12.9033 12.7217C11.6843 11.5027 11 9.84891 11 8.125C11 6.40109 11.6843 4.74731 12.9033 3.52832C14.1223 2.30933 15.7761 1.625 17.5 1.625Z" fill="#6A84F9" stroke="#6A84F9" stroke-width="2"/>
</svg>
