<svg width="40" height="40" viewBox="0 0 40 40" fill="none" xmlns="http://www.w3.org/2000/svg">
<path fill-rule="evenodd" clip-rule="evenodd" d="M25.7166 3.26133L19.9985 0L14.2804 3.26133L7.63898 3.82042L5.02635 9.6541L0 13.819L1.49336 20L0 26.181L5.02635 30.3459L7.63898 36.1796L14.2804 36.7387L19.9985 40L25.7166 36.7387L32.3581 36.1796L34.9707 30.3459L40 26.181L38.5007 20L39.997 13.819L34.9677 9.6541L32.3551 3.82042L25.7166 3.26133ZM13.1166 15.7645C13.1166 15.3901 13.273 15.031 13.5514 14.7662C13.8298 14.5014 14.2074 14.3527 14.6011 14.3527C14.9948 14.3527 15.3723 14.5014 15.6507 14.7662C15.9291 15.031 16.0855 15.3901 16.0855 15.7645C16.0855 16.1389 15.9291 16.4981 15.6507 16.7628C15.3723 17.0276 14.9948 17.1763 14.6011 17.1763C14.2074 17.1763 13.8298 17.0276 13.5514 16.7628C13.273 16.4981 13.1166 16.1389 13.1166 15.7645ZM14.6011 11.529C13.42 11.529 12.2872 11.9753 11.4521 12.7696C10.6169 13.5639 10.1477 14.6412 10.1477 15.7645C10.1477 16.8878 10.6169 17.9651 11.4521 18.7595C12.2872 19.5538 13.42 20 14.6011 20C15.7822 20 16.9149 19.5538 17.75 18.7595C18.5852 17.9651 19.0544 16.8878 19.0544 15.7645C19.0544 14.6412 18.5852 13.5639 17.75 12.7696C16.9149 11.9753 15.7822 11.529 14.6011 11.529ZM14.1676 28.0587L29.0121 13.9404L26.9101 11.9413L12.0656 26.0596L14.1676 28.0587ZM24.9922 25.6473C24.9922 25.2729 25.1486 24.9138 25.427 24.649C25.7054 24.3842 26.083 24.2355 26.4767 24.2355C26.8704 24.2355 27.2479 24.3842 27.5263 24.649C27.8047 24.9138 27.9611 25.2729 27.9611 25.6473C27.9611 26.0218 27.8047 26.3809 27.5263 26.6456C27.2479 26.9104 26.8704 27.0592 26.4767 27.0592C26.083 27.0592 25.7054 26.9104 25.427 26.6456C25.1486 26.3809 24.9922 26.0218 24.9922 25.6473ZM26.4767 21.4118C25.2956 21.4118 24.1628 21.8581 23.3277 22.6524C22.4925 23.4467 22.0233 24.524 22.0233 25.6473C22.0233 26.7706 22.4925 27.848 23.3277 28.6423C24.1628 29.4366 25.2956 29.8828 26.4767 29.8828C27.6578 29.8828 28.7905 29.4366 29.6257 28.6423C30.4608 27.848 30.93 26.7706 30.93 25.6473C30.93 24.524 30.4608 23.4467 29.6257 22.6524C28.7905 21.8581 27.6578 21.4118 26.4767 21.4118Z" fill="#6A84F9"/>
</svg>
